<svg id="visual" viewBox="0 0 900 600" width="900" height="600" xmlns="http://www.w3.org/2000/svg" xmlns:xlink="http://www.w3.org/1999/xlink" version="1.1"><path d="M0 67L13.7 77C27.3 87 54.7 107 82 121C109.3 135 136.7 143 163.8 141C191 139 218 127 245.2 122C272.3 117 299.7 119 327 123C354.3 127 381.7 133 409 131C436.3 129 463.7 119 491 122C518.3 125 545.7 141 573 146C600.3 151 627.7 145 654.8 134C682 123 709 107 736.2 104C763.3 101 790.7 111 818 115C845.3 119 872.7 117 886.3 116L900 115L900 0L886.3 0C872.7 0 845.3 0 818 0C790.7 0 763.3 0 736.2 0C709 0 682 0 654.8 0C627.7 0 600.3 0 573 0C545.7 0 518.3 0 491 0C463.7 0 436.3 0 409 0C381.7 0 354.3 0 327 0C299.7 0 272.3 0 245.2 0C218 0 191 0 163.8 0C136.7 0 109.3 0 82 0C54.7 0 27.3 0 13.7 0L0 0Z" fill="#5b5a99"></path><path d="M0 109L13.7 127C27.3 145 54.7 181 82 203C109.3 225 136.7 233 163.8 230C191 227 218 213 245.2 210C272.3 207 299.7 215 327 218C354.3 221 381.7 219 409 213C436.3 207 463.7 197 491 199C518.3 201 545.7 215 573 224C600.3 233 627.7 237 654.8 226C682 215 709 189 736.2 185C763.3 181 790.7 199 818 204C845.3 209 872.7 201 886.3 197L900 193L900 113L886.3 114C872.7 115 845.3 117 818 113C790.7 109 763.3 99 736.2 102C709 105 682 121 654.8 132C627.7 143 600.3 149 573 144C545.7 139 518.3 123 491 120C463.7 117 436.3 127 409 129C381.7 131 354.3 125 327 121C299.7 117 272.3 115 245.2 120C218 125 191 137 163.8 139C136.7 141 109.3 133 82 119C54.7 105 27.3 85 13.7 75L0 65Z" fill="#474688"></path><path d="M0 193L13.7 207C27.3 221 54.7 249 82 269C109.3 289 136.7 301 163.8 304C191 307 218 301 245.2 302C272.3 303 299.7 311 327 305C354.3 299 381.7 279 409 270C436.3 261 463.7 263 491 268C518.3 273 545.7 281 573 294C600.3 307 627.7 325 654.8 324C682 323 709 303 736.2 296C763.3 289 790.7 295 818 298C845.3 301 872.7 301 886.3 301L900 301L900 191L886.3 195C872.7 199 845.3 207 818 202C790.7 197 763.3 179 736.2 183C709 187 682 213 654.8 224C627.7 235 600.3 231 573 222C545.7 213 518.3 199 491 197C463.7 195 436.3 205 409 211C381.7 217 354.3 219 327 216C299.7 213 272.3 205 245.2 208C218 211 191 225 163.8 228C136.7 231 109.3 223 82 201C54.7 179 27.3 143 13.7 125L0 107Z" fill="#323377"></path><path d="M0 463L13.7 467C27.3 471 54.7 479 82 478C109.3 477 136.7 467 163.8 464C191 461 218 465 245.2 461C272.3 457 299.7 445 327 436C354.3 427 381.7 421 409 429C436.3 437 463.7 459 491 452C518.3 445 545.7 409 573 414C600.3 419 627.7 465 654.8 467C682 469 709 427 736.2 406C763.3 385 790.7 385 818 392C845.3 399 872.7 413 886.3 420L900 427L900 299L886.3 299C872.7 299 845.3 299 818 296C790.7 293 763.3 287 736.2 294C709 301 682 321 654.8 322C627.7 323 600.3 305 573 292C545.7 279 518.3 271 491 266C463.7 261 436.3 259 409 268C381.7 277 354.3 297 327 303C299.7 309 272.3 301 245.2 300C218 299 191 305 163.8 302C136.7 299 109.3 287 82 267C54.7 247 27.3 219 13.7 205L0 191Z" fill="#2a2d67"></path><path d="M0 601L13.7 601C27.3 601 54.7 601 82 601C109.3 601 136.7 601 163.8 601C191 601 218 601 245.2 601C272.3 601 299.7 601 327 601C354.3 601 381.7 601 409 601C436.3 601 463.7 601 491 601C518.3 601 545.7 601 573 601C600.3 601 627.7 601 654.8 601C682 601 709 601 736.2 601C763.3 601 790.7 601 818 601C845.3 601 872.7 601 886.3 601L900 601L900 425L886.3 418C872.7 411 845.3 397 818 390C790.7 383 763.3 383 736.2 404C709 425 682 467 654.8 465C627.7 463 600.3 417 573 412C545.7 407 518.3 443 491 450C463.7 457 436.3 435 409 427C381.7 419 354.3 425 327 434C299.7 443 272.3 455 245.2 459C218 463 191 459 163.8 462C136.7 465 109.3 475 82 476C54.7 477 27.3 469 13.7 465L0 461Z" fill="#222758"></path></svg>