<svg xmlns="http://www.w3.org/2000/svg" version="1.1" xmlns:xlink="http://www.w3.org/1999/xlink" xmlns:svgjs="http://svgjs.dev/svgjs" width="1440" height="150" preserveAspectRatio="none" viewBox="0 0 1440 150"><g mask="url(&quot;#SvgjsMask1008&quot;)" fill="none"><rect width="1440" height="150" x="0" y="0" fill="url(&quot;#SvgjsLinearGradient1009&quot;)"></rect><path d="M8 150L158 0L279.5 0L129.5 150z" fill="url(&quot;#SvgjsLinearGradient1010&quot;)"></path><path d="M240.60000000000002 150L390.6 0L636.6 0L486.6 150z" fill="url(&quot;#SvgjsLinearGradient1010&quot;)"></path><path d="M521.2 150L671.2 0L797.2 0L647.2 150z" fill="url(&quot;#SvgjsLinearGradient1010&quot;)"></path><path d="M746.8000000000001 150L896.8000000000001 0L1235.8000000000002 0L1085.8000000000002 150z" fill="url(&quot;#SvgjsLinearGradient1010&quot;)"></path><path d="M1415 150L1265 0L1188.5 0L1338.5 150z" fill="url(&quot;#SvgjsLinearGradient1011&quot;)"></path><path d="M1158.4 150L1008.4000000000001 0L895.9000000000001 0L1045.9 150z" fill="url(&quot;#SvgjsLinearGradient1011&quot;)"></path><path d="M959.8 150L809.8 0L463.29999999999995 0L613.3 150z" fill="url(&quot;#SvgjsLinearGradient1011&quot;)"></path><path d="M693.1999999999999 150L543.1999999999999 0L268.69999999999993 0L418.69999999999993 150z" fill="url(&quot;#SvgjsLinearGradient1011&quot;)"></path><path d="M1294.8929672522165 150L1440 4.892967252216465L1440 150z" fill="url(&quot;#SvgjsLinearGradient1010&quot;)"></path><path d="M0 150L145.10703274778353 150L 0 4.892967252216465z" fill="url(&quot;#SvgjsLinearGradient1011&quot;)"></path></g><defs><mask id="SvgjsMask1008"><rect width="1440" height="150" fill="#ffffff"></rect></mask><linearGradient x1="50%" y1="0%" x2="50%" y2="100%" gradientUnits="userSpaceOnUse" id="SvgjsLinearGradient1009"><stop stop-color="#0e2a47" offset="0"></stop><stop stop-color="rgba(50, 51, 119, 1)" offset="1"></stop></linearGradient><linearGradient x1="0%" y1="100%" x2="100%" y2="0%" id="SvgjsLinearGradient1010"><stop stop-color="rgba(15, 70, 185, 0.2)" offset="0"></stop><stop stop-opacity="0" stop-color="rgba(15, 70, 185, 0.2)" offset="0.66"></stop></linearGradient><linearGradient x1="100%" y1="100%" x2="0%" y2="0%" id="SvgjsLinearGradient1011"><stop stop-color="rgba(15, 70, 185, 0.2)" offset="0"></stop><stop stop-opacity="0" stop-color="rgba(15, 70, 185, 0.2)" offset="0.66"></stop></linearGradient></defs></svg>